Coordinates
version=1
nRows=11
nColumns=36
inDegrees=yes

Units are S.I. units (second, meters, Newtons, ...)
If the header above contains a line with 'inDegrees', this indicates whether rotational values are in degrees (yes) or radians (no).

endheader
time	pelvis_tilt	pelvis_list	pelvis_rotation	pelvis_tx	pelvis_ty	pelvis_tz	hip_flexion_r	hip_adduction_r	hip_rotation_r	knee_angle_r	knee_angle_r_beta	ankle_angle_r	subtalar_angle_r	mtp_angle_r	hip_flexion_l	hip_adduction_l	hip_rotation_l	knee_angle_l	knee_angle_l_beta	ankle_angle_l	subtalar_angle_l	mtp_angle_l	lumbar_extension	lumbar_bending	lumbar_rotation	arm_flex_r	arm_add_r	arm_rot_r	elbow_flex_r	pro_sup_r	arm_flex_l	arm_add_l	arm_rot_l	elbow_flex_l	pro_sup_l
      0.00400000	     -0.13125130	     -4.81682714	      3.14976392	     -5.45205653	      1.07060118	      0.13697676	     29.41533537	      7.34253354	    -10.99563491	     11.33141110	      0.19777043	     -5.73347013	      7.33289140	    -34.11348084	    -23.25710103	     -2.73936493	      1.97568746	     65.61278568	      1.14515914	    -17.34886382	    -13.27281850	    -10.26561961	    -10.48029931	      5.55274443	    -11.48262346	    -59.39004068	    -18.03919341	     -6.21835517	     88.61984508	     90.00021046	    -12.16261128	    -12.57022733	     -2.18905548	    131.54579858	     90.00021046
      0.00800000	      0.21384895	     -4.97132487	      3.13091021	     -5.43169543	      1.06922872	      0.13672048	     28.68903107	      7.62419714	    -11.43470189	     11.32477277	      0.19765457	     -5.54661845	      6.73524540	    -34.02919704	    -22.85289314	     -2.89246107	      1.97525072	     68.17119295	      1.18981177	    -17.03798845	    -13.83955348	    -10.16898673	    -10.93724416	      5.77431487	    -11.16327705	    -58.68342295	    -18.21536664	     -6.14674166	     88.82846036	     90.00021046	    -12.65701617	    -12.45334634	     -2.45787751	    130.06217660	     90.00021046
      0.01200000	      0.49618107	     -4.99710552	      3.23381389	     -5.41195130	      1.06770142	      0.13603888	     28.17869915	      7.64342381	    -12.07158267	     11.73786076	      0.20486432	     -5.24389364	      6.23111402	    -33.68957014	    -21.95909208	     -2.81465962	      2.29359401	     71.19303116	      1.24255280	    -17.16562625	    -14.40829964	     -9.85472521	    -11.41919542	      5.89944759	    -10.93746745	    -57.85008181	    -18.38393038	     -6.07980695	     88.89783732	     90.00021046	    -13.13105233	    -12.34445752	     -2.55669756	    128.63693747	     90.00021046
      0.01600000	      0.72695645	     -5.04094704	      3.16000184	     -5.39210668	      1.06594787	      0.13550556	     27.74577961	      7.75746852	    -12.45958456	     12.38575335	      0.21617218	     -4.90664522	      5.52742325	    -32.47046291	    -21.11366715	     -2.68813965	      2.39053052	     74.07120807	      1.29278646	    -16.79064884	    -15.32487357	     -5.89112949	    -11.82446432	      6.04820378	    -10.54268641	    -57.04173101	    -18.59656530	     -6.04394026	     89.15705597	     90.00021046	    -13.09991317	    -12.30087927	     -3.37115432	    126.75387681	     90.00021046
      0.02000000	      0.99550121	     -5.26541905	      3.03519135	     -5.37216193	      1.06399976	      0.13516995	     27.28642026	      8.07424007	    -12.80652106	     13.13698318	      0.22928361	     -4.89992022	      4.78656384	    -32.24722668	    -20.48758623	     -2.89124275	      2.19369694	     76.70070058	      1.33867976	    -16.23266230	    -15.78255808	     -5.90357017	    -12.25474987	      6.33859048	     -9.97605057	    -56.23466756	    -18.79147811	     -6.04736723	     89.35755537	     90.00021046	    -13.40302574	    -12.17281103	     -3.44160862	    124.88397202	     90.00021046
      0.02400000	      1.27449991	     -5.39657912	      2.79801939	     -5.35224044	      1.06200350	      0.13479691	     26.84444198	      8.32252939	    -12.93220666	     14.14280299	      0.24683848	     -4.77860760	      4.21259381	    -31.08062647	    -19.89354649	     -2.85588323	      2.03128447	     79.01004347	      1.37898540	    -18.06194634	    -18.22770467	    -10.84652272	    -12.70227958	      6.53491922	     -9.40361825	    -55.36183341	    -19.14597190	     -5.96661205	     89.65185048	     90.00021046	    -13.69977813	    -12.00412274	     -3.68922792	    123.00650367	     90.00021046
      0.02800000	      1.36437167	     -5.34590748	      2.64499693	     -5.33302783	      1.05961553	      0.13378127	     26.75538107	      8.23405018	    -13.11084199	     15.53024143	      0.27105385	     -4.79307038	      3.77861503	    -30.65772485	    -18.62405450	     -2.45543476	      2.01456531	     82.10908136	      1.43307382	    -17.06441289	    -19.99687325	     -4.16959701	    -13.05430692	      6.61221227	     -8.92457164	    -54.37229800	    -19.48645551	     -5.97349100	     89.94997334	     90.00021046	    -14.08356984	    -11.73135297	     -3.74610304	    121.52861788	     90.00021046
      0.03200000	      1.61890438	     -5.68647300	      2.65608393	     -5.31365089	      1.05715883	      0.13365071	     26.39318235	      8.59456213	    -13.27648530	     16.70173054	      0.29150019	     -5.15198384	      3.24146196	    -30.52525571	    -17.75787862	     -2.96544524	      2.17103602	     84.73557998	      1.47891486	    -17.64848676	    -18.74432081	     -9.77735080	    -13.57893626	      7.01506333	     -8.42687402	    -53.38136110	    -19.68210829	     -5.98172712	     90.16643438	     90.00021046	    -14.71752310	    -11.46533430	     -3.48922853	    120.02355230	     90.00021046
      0.03600000	      1.66009973	     -5.67084630	      2.44348507	     -5.29464670	      1.05431592	      0.13267979	     26.39899685	      8.52494547	    -13.17738411	     18.34032793	      0.32009911	     -5.32063063	      3.20907050	    -30.26190727	    -16.37089656	     -2.65958532	      1.93486108	     87.84171541	      1.53312715	    -16.08512540	    -20.18131393	     -2.83859094	    -13.90930776	      7.12114547	     -7.83707171	    -52.32399142	    -20.07227654	     -6.06848774	     90.57125887	     90.00021046	    -14.78224662	    -11.25558255	     -3.77330627	    118.09890113	     90.00021046
      0.04000000	      1.82088494	     -6.01874247	      2.38541670	     -5.27539394	      1.05138917	      0.13273593	     26.16171485	      8.90832604	    -13.04058088	     19.70635788	      0.34394083	     -5.72350991	      3.03523235	    -30.01512740	    -15.26282064	     -3.16481067	      2.05899739	     90.54755732	      1.58035300	    -16.21880460	    -18.58716818	     -7.75657773	    -14.31589376	      7.48670318	     -7.35322520	    -51.19261530	    -20.43964697	     -5.94275941	     90.81876241	     90.00021046	    -15.49125677	    -11.00971781	     -3.79536451	    116.54380981	     90.00021046
      0.04400000	      2.03976810	     -6.26784674	      2.15107175	     -5.25589627	      1.04845966	      0.13257530	     25.87134042	      9.20866372	    -12.65900637	     21.21952969	      0.37035066	     -5.99979029	      3.20166211	    -29.92202673	    -14.32868565	     -3.41039759	      1.90260141	     93.09800399	      1.62486670	    -15.43642049	    -18.35442353	     -7.93055503	    -14.79153535	      7.78701269	     -6.71872050	    -50.07877417	    -20.86920837	     -5.91006339	     91.14782676	     90.00021046	    -15.79807410	    -10.82569998	     -4.04432557	    114.75816078	     90.00021046
